<svg xmlns="http://www.w3.org/2000/svg" version="1.0" width="320" height="320" viewBox="0 0 64.000000 64.000000">
 <g transform="matrix(1,0,0,-1,0,64)">
 v2.0 14 November 2016 - Peter Lowden - peter@lowden.nz
  <path d="m 32,1 0.1,0 0.2,0.1 0.2,0.2 0.3,0.4 0.4,0.9 0.5,1.6 0.6,2.4 0.3,2.3 0.2,2.8 0,7.3 6.2,5.6 -0.1,-0.7 0,-1.3 0.1,-0.5 0.1,-0.1 2.1,0 0.1,0.1 0.1,0.5 0,1.3 -0.2,0.9 -0.4,0 0,1.5 5.9,5.3 -0.1,-0.8 0,-1.3 0.1,-0.5 0.1,-0.1 2.1,0 0.1,0.1 0.1,0.5 0,1.3 -0.2,0.9 -0.4,0 0,1.6 6.7,5.9 0.3,0.4 0.1,0.3 0,5.9 -0.2,0 -0.1,-2.7 -9.3,-5.6 0,0.4 -0.2,0.5 -0.2,-0.5 -0.1,-0.7 -2.8,-1.6 0,0.4 -0.2,0.5 -0.2,-0.5 -0.1,-0.7 -1,-0.7 -3.7,-1.2 0,0.5 -0.2,0.5 -0.2,-0.5 -0.1,-0.7 -2,-0.6 0,0.5 -0.2,0.5 -0.2,-0.5 -0.1,-0.7 -1.7,-0.5 0.1,12.5 -0.3,3.7 -0.4,2.6 -0.4,1.9 7.2,6.9 0.2,0.3 0.1,0.3 0.1,1.9 -9,-2.6 -0.3,1.8 0,1.8 -0.1,0.1 -0.1,-0.1 0,-1.8 -0.3,-1.8 -9,2.6 0.1,-1.9 0.1,-0.3 0.2,-0.3 7.2,-6.9 -0.4,-1.9 -0.4,-2.6 -0.2,-3.7 0,-12.5 -1.7,0.5 -0.1,0.7 -0.2,0.5 -0.2,-0.5 0,-0.5 -2,0.6 -0.1,0.7 -0.2,0.5 -0.2,-0.5 0,-0.5 -3.7,1.2 -1,0.7 -0.1,0.7 -0.2,0.5 -0.2,-0.5 0,-0.4 -2.8,1.6 -0.1,0.7 -0.2,0.5 -0.2,-0.5 0,-0.4 -9.3,5.6 -0.1,2.7 -0.2,0 0,-5.9 0.1,-0.3 0.3,-0.4 6.7,-5.9 0,-1.6 -0.4,0 -0.2,-0.9 0,-1.2 0.1,-0.6 0.1,-0.1 2.1,0 0.1,0.1 0.1,0.6 0,1.2 -0.1,0.8 5.9,-5.3 0,-1.5 -0.4,0 -0.2,-0.9 0,-1.2 0.1,-0.6 0.1,-0.1 2.1,0 0.1,0.1 0.1,0.6 0,1.2 -0.1,0.7 6.3,-5.6 -0.1,-7.3 0.2,-2.8 0.3,-2.3 0.6,-2.4 0.5,-1.6 0.4,-0.9 0.3,-0.4 0.2,-0.2 0.2,-0.1 z" fill="#ccffff" stroke="#0014aa" stroke-width="0.1"/>
 </g>
</svg>