<svg xmlns="http://www.w3.org/2000/svg" version="1.0" width="320" height="320" viewBox="0 0 64.000000 64.000000">
 <g transform="matrix(1,0,0,-1,0,64)">
 v2.0 14 November 2016 - Peter Lowden - peter@lowden.nz
  <path d="m 32,4.4 0.1,0 0.2,0.1 0.3,0.3 0.5,0.8 0.7,1.7 0.5,2 0.3,2.5 0,10.9 0.3,0.6 0.5,0.6 3.3,2.2 -0.2,-1.1 0,-1.6 0.2,-1.4 0.1,-0.2 3,0 0.1,0.2 0.2,1.4 0,1.6 -0.2,1.4 -0.4,0 -0.4,1.3 17.3,11.4 1.3,1.8 0,0.6 -1.3,-0.8 -9.6,-3.3 -0.1,0.6 -0.1,0.2 -0.1,-0.2 -0.1,-0.7 -4.2,-1.4 -0.1,0.6 -0.1,0.2 -0.1,-0.2 -0.1,-0.7 -2.5,-0.8 -1.8,0 -0.1,0.7 -0.1,0.2 -0.1,-0.2 -0.1,-0.7 -4.5,0 0,10.6 -0.2,1.9 -0.7,3.8 7.6,6.2 0.1,0.7 0,0.7 -0.1,0.7 -8.5,-3.1 -0.2,0.4 -0.5,1.8 -0.2,0 -0.5,-1.8 -0.2,-0.4 -8.5,3.1 -0.1,-0.7 0,-0.7 0.1,-0.7 7.6,-6.2 -0.7,-3.8 -0.2,-1.9 0,-10.6 -4.5,0 -0.1,0.7 -0.1,0.2 -0.1,-0.2 -0.1,-0.7 -1.8,0 -2.5,0.8 -0.1,0.7 -0.1,0.2 -0.1,-0.2 -0.1,-0.6 -4.2,1.4 -0.1,0.7 -0.1,0.2 -0.1,-0.2 -0.1,-0.6 -9.6,3.3 -1.3,0.8 0,-0.6 1.3,-1.8 17.3,-11.4 -0.4,-1.3 -0.4,0 -0.2,-1.4 0,-1.6 0.2,-1.4 0.1,-0.2 3,0 0.1,0.2 0.2,1.4 0,1.6 -0.2,1.1 3.3,-2.2 0.5,-0.6 0.3,-0.6 0,-10.9 0.3,-2.5 0.5,-2 0.7,-1.7 0.5,-0.8 0.3,-0.3 0.2,-0.1 z" fill="#ccffff" stroke="#0014aa" stroke-width="0.1"/>
 </g>
</svg>