<svg xmlns="http://www.w3.org/2000/svg" version="1.0" width="320" height="320" viewBox="0 0 64.000000 64.000000">
 <g transform="matrix(1,0,0,-1,0,64)">
 v2.0 15 November 2016 - Peter Lowden - peter@lowden.nz
  <path d="m 32,10.1 0.4,0.8 0.3,1 4.7,0 0,0.2 -4.6,0.1 0.1,0.6 0.6,0 0.6,0.2 0.3,0.4 0.2,0.7 0.4,4.3 0.1,3 11.2,0 15.8,0.8 0.6,0.4 0.3,0.8 0,5 -16.7,2.1 -11.3,0 -2,16.2 8.2,1.6 0.5,0.3 0.1,0.5 0,2.9 -0.2,0.4 -0.4,0.2 -7.9,1.1 -1,-2.5 -0.1,5 -0.2,0.1 -0.2,-0.1 -0.1,-5 -1,2.5 -7.9,-1.1 -0.4,-0.2 -0.2,-0.4 0,-2.9 0.1,-0.5 0.5,-0.3 8.2,-1.6 -2,-16.2 -11.3,0 -16.7,-2.1 0,-5 0.3,-0.8 0.6,-0.4 15.8,-0.8 11.2,0 0.1,-3 0.4,-4.3 0.2,-0.7 0.3,-0.4 0.6,-0.2 0.6,0 0.1,-0.6 -4.7,-0.1 0,-0.2 4.8,0 0.3,-1 z" fill="#ccffff" stroke="#0014aa" stroke-width="0.1"/>
 </g>
</svg>