<svg xmlns="http://www.w3.org/2000/svg" width="179" height="196" viewBox="0 0 180 197">
  <g id="Group_19" data-name="Group 19" transform="translate(-89.5 -140.5)">
    <g id="_49030a9fca0fbfbf80e7c1056fe625b8" data-name="49030a9fca0fbfbf80e7c1056fe625b8" transform="translate(79.999 130.707)">
      <g id="Group_7" data-name="Group 7" transform="translate(10.001 10.293)">
        <path id="Path_1" data-name="Path 1" d="M92.381-501.6A95.636,95.636,0,0,0,73.9-498.279,86.165,86.165,0,0,0,38.38-477.455c-4.794,4.62-8.12.314,28,36.467C84.228-423.1,97.736-409.84,98.4-409.56a2.935,2.935,0,0,0,3.92-3.639,35.409,35.409,0,0,0-4.62-5.214l-4.235-4.269,1.365-.631a12.473,12.473,0,0,1,4.549-.631c2.7,0,3.43.141,5.11.91a12.6,12.6,0,0,1,5.879,5.879,9.308,9.308,0,0,1,.91,4.935,10.828,10.828,0,0,1-3.324,8.4,10.828,10.828,0,0,1-8.4,3.324,9.308,9.308,0,0,1-4.935-.91,12.35,12.35,0,0,1-6.965-9.939c-.314-2.659-.455-2.9-1.959-3.535-3.22-1.365-4.794,1.82-3.465,6.965a17.926,17.926,0,0,0,21.7,13.018c13.369-3.5,17.989-20.23,8.261-29.958A18.337,18.337,0,0,0,90.948-428l-1.82.98-6.335-6.335-6.3-6.336,1.994-1.469a43.577,43.577,0,0,1,11.445-5.6c2.941-.875,3.535-.945,9.624-.945,6.02,0,6.685.069,9.555.945a34.944,34.944,0,0,1,15.679,9.31,35.258,35.258,0,0,1,9.31,15.679c.875,2.869.945,3.5.945,9.555s-.069,6.684-.945,9.624a36.184,36.184,0,0,1-9.834,16.2,37.035,37.035,0,0,1-11.163,7.314c-2.345.91-2.486.945-2.835.314a13.369,13.369,0,0,0-7.735-6.194,15.512,15.512,0,0,0-3.849-.245,11.393,11.393,0,0,0-9.134,5.39c-.49.841-1.049,1.541-1.261,1.541a22,22,0,0,1-3.01-1.12,36.706,36.706,0,0,1-18.094-17.534,30.933,30.933,0,0,1-3.22-13.928c-.21-5.984.28-9.169,2.241-14.139,1.749-4.514,1.786-4.865.525-6.124a2.825,2.825,0,0,0-3.814-.525c-.91.631-2.59,4.62-3.814,8.994a51.14,51.14,0,0,0-.841,16.763,44.229,44.229,0,0,0,7.559,18.338c4.935,6.614,12.914,12.528,19.879,14.734,1.855.6,1.89.631,2.414,2.555a12.461,12.461,0,0,0,6.79,7.839,9.8,9.8,0,0,0,4.655.769,10.574,10.574,0,0,0,8.294-3.29c1.541-1.575,3.255-4.584,3.255-5.775,0-1.12.349-1.4,2.8-2.275A42.7,42.7,0,0,0,136.9-393.5a42.636,42.636,0,0,0,0-37.448,44.256,44.256,0,0,0-18.444-18.549,37.437,37.437,0,0,0-17.008-4.269c-6.369-.245-9.8.175-14.734,1.82-5.11,1.714-8.19,3.359-13.824,7.49-.631.455-1.12.069-6.93-5.739-5.075-5.075-6.194-6.369-5.879-6.755,1.225-1.469,8.328-6.3,12.179-8.259a59,59,0,0,1,39.583-5.459,63.918,63.918,0,0,1,19.424,7.873c1.855,1.19,1.924,1.3,1.645,2.38a23.14,23.14,0,0,0-.28,3.745,8.978,8.978,0,0,0,.91,4.585,12.022,12.022,0,0,0,13.51,6.614c1.645-.386,1.68-.386,2.449.6,1.469,1.82,5.32,9.763,6.579,13.508a59.231,59.231,0,0,1-3.29,46.022,58.9,58.9,0,0,1-26.353,26.353,59.415,59.415,0,0,1-60.125-3.71,59.677,59.677,0,0,1-23.938-66.635,60.5,60.5,0,0,1,5.81-13.194,19.378,19.378,0,0,0,2.03-4.341c0-1.12-1.82-2.8-3.045-2.8-1.435.035-2.239.841-4.3,4.3a65.823,65.823,0,0,0-6.439,51.132,65.867,65.867,0,0,0,34.087,40.877,65.446,65.446,0,0,0,65.446-4.3,62.4,62.4,0,0,0,18.163-18.163A64.911,64.911,0,0,0,165.036-407.6a65.741,65.741,0,0,0-9.694-39.2l-1.61-2.555,1.155-2.31c1.086-2.135,1.19-2.624,1.19-5.32a9.371,9.371,0,0,0-.91-4.969,12.6,12.6,0,0,0-5.879-5.879,9.312,9.312,0,0,0-4.935-.91A8.93,8.93,0,0,0,139-467.587l-2.38,1.192-2.52-1.645a67.692,67.692,0,0,0-21.524-8.575,65.545,65.545,0,0,0-45.742,7.524,77.7,77.7,0,0,0-10.255,7.279l-1.155,1.086-6.3-6.335-6.335-6.3,1.541-1.435q18.217-16.8,44.2-20.438a120.674,120.674,0,0,1,22.748.21,84.31,84.31,0,0,1,48.3,24.742,83.4,83.4,0,0,1,23.52,55.262,84.486,84.486,0,0,1-14.873,50.4c-.875,1.259-1.61,2.31-1.645,2.38a20.874,20.874,0,0,1-2.414-1.014c-2.2-1.014-2.555-1.086-5.39-.945a10.387,10.387,0,0,0-7.979,3.5c-2.31,2.38-3.045,4.165-3.22,7.7-.141,2.835-.069,3.184.945,5.39a20.5,20.5,0,0,1,1.014,2.414c-.069.035-1.12.769-2.38,1.645a84.241,84.241,0,0,1-59.321,14.1,83.911,83.911,0,0,1-63.17-45.811,83.745,83.745,0,0,1-7.91-25.232,105.537,105.537,0,0,1-.035-23.273,85.948,85.948,0,0,1,10.569-30.483,16.238,16.238,0,0,0,1.924-4.3c0-1.959-2.659-3.324-4.549-2.31-1.435.769-7.279,12.283-9.59,18.863a89.769,89.769,0,0,0-.349,58.48,106.653,106.653,0,0,0,10.045,20.579c17.428,26.071,46.86,41.33,77.588,40.175A87.586,87.586,0,0,0,132.8-329.1a98.776,98.776,0,0,0,20.3-11.373c1.259-.98,1.259-.98,3.149-.455a12.523,12.523,0,0,0,11.724-3.43,12.461,12.461,0,0,0,2.869-11.165c-.525-1.89-.525-1.89.455-3.149a108.423,108.423,0,0,0,7.665-12.249,90.035,90.035,0,0,0,8.924-56.17,89.5,89.5,0,0,0-23.938-47.211,85.226,85.226,0,0,0-25.022-18.234,87.506,87.506,0,0,0-26.773-8.4A157.976,157.976,0,0,0,92.381-501.6Zm54.77,39.442a6.225,6.225,0,0,1,3.149,5.075c0,1.575-1.225,4.165-2.135,4.445-.351.141-.665.351-.665.525,0,.42-2,1.051-3.324,1.051a6.935,6.935,0,0,1-2.624-.8,6.247,6.247,0,0,1-3.149-5.145,6.247,6.247,0,0,1,3.149-5.145A5.52,5.52,0,0,1,147.151-462.161Zm-44.585,83.713a6.38,6.38,0,0,1,2.939,5.145,6.3,6.3,0,0,1-5.949,5.88,6.247,6.247,0,0,1-5.145-3.149,5.6,5.6,0,0,1,0-5.635A5.763,5.763,0,0,1,102.566-378.448Zm59.7,20.893a5.835,5.835,0,0,1,1.19,9.239,5.866,5.866,0,0,1-10.008-4.3A5.833,5.833,0,0,1,162.271-357.555Z" transform="translate(-10.001 501.707)" fill="#147d7f"/>
      </g>
    </g>
  </g>
</svg>
