<svg xmlns="http://www.w3.org/2000/svg" width="179" height="196" viewBox="0 0 180 197">
  <g id="Group_19" data-name="Group 19" transform="translate(-89.5 -140.5)">
    <g id="_747-100" data-name="747-100" transform="translate(199.791 325.821) rotate(-135)">
      <path id="Path_4" data-name="Path 4" d="M66.981,83.856h.237l.473-.237.473-.473.71-.947.947-2.13L71,76.283l1.42-5.679.71-5.443.473-6.626V41.26L88.279,28.008l-.237,1.657v3.076l.237,1.183.237.237h4.97l.237-.237.237-1.183V29.664l-.473-2.13h-.947v-3.55L106.5,11.443l-.237,1.893v3.076L106.5,17.6l.237.237h4.97l.237-.237.237-1.183V13.336l-.473-2.13h-.947V7.42L126.615-6.542l.71-.947.237-.71V-22.161h-.473l-.237,6.389L104.844-2.519v-.947l-.473-1.183L103.9-3.466l-.237,1.657L97.035,1.977V1.03L96.561-.153,96.088,1.03l-.237,1.657L93.485,4.343l-8.756,2.84V6l-.473-1.183L83.783,6l-.237,1.657-4.733,1.42V7.893L78.34,6.71l-.473,1.183L77.63,9.55l-4.023,1.183.237-29.58-.71-8.756-.947-6.153-.947-4.5L88.279-54.581l.473-.71.237-.71.237-4.5-21.3,6.153-.71-4.26v-4.26l-.237-.237-.237.237v4.26l-.71,4.26L44.736-60.5l.237,4.5.237.71.473.71L62.721-38.252l-.947,4.5L60.828-27.6l-.473,8.756v29.58L56.332,9.55,56.1,7.893,55.622,6.71l-.473,1.183V9.076l-4.733-1.42L50.179,6l-.473-1.183L49.233,6V7.183l-8.756-2.84L38.11,2.687,37.874,1.03,37.4-.153,36.927,1.03v.947L30.3-1.809l-.237-1.657-.473-1.183-.473,1.183v.947L7.11-15.771l-.237-6.389H6.4V-8.2l.237.71.71.947L23.2,7.42v3.786h-.947l-.473,2.13v2.84l.237,1.42.237.237h4.97l.237-.237.237-1.42v-2.84l-.237-1.893L41.423,23.985v3.55h-.947L40,29.664V32.5l.237,1.42.237.237h4.97l.237-.237.237-1.42v-2.84l-.237-1.657L60.591,41.26l-.237,17.275.473,6.626.71,5.443,1.42,5.679,1.183,3.786.947,2.13.71.947.473.473.473.237Z" transform="translate(0)" fill="#00ba80" stroke="#3a7e7f" stroke-width="0.1"/>
    </g>
  </g>
</svg>
